<svg xmlns="http://www.w3.org/2000/svg" style="display: none;"><symbol id="chat" viewBox="0 0 512 512">
<title>chat</title>
<style lang="en" type="text/css" id="dark-mode-custom-style"/><style lang="en" type="text/css" id="dark-mode-native-style"/><path xmlns="http://www.w3.org/2000/svg" style="" d="M467,75.977H135c-8.401,0-15,6.599-15,15v300c0,8.399,6.599,15,15,15h175.699l85.801,85.499 c9.3,9.6,25.499,3.001,25.499-10.499v-75h45c24.901,0,45-20.101,45-45v-240C512,96.077,491.901,75.977,467,75.977z" fill="#c417e8" data-original="#17ace8" class=""/><path xmlns="http://www.w3.org/2000/svg" style="" d="M512,120.977v240c0,24.899-20.099,45-45,45h-45v75c0,13.5-16.199,20.099-25.499,10.499L310.7,405.977 H212v-330h255C491.901,75.977,512,96.077,512,120.977z" fill="#b416fc" data-original="#1689fc" class=""/><path xmlns="http://www.w3.org/2000/svg" style="" d="M377,15.977H45c-24.901,0-45,20.099-45,45v240c0,24.899,20.099,45,45,45h45v75 c0,13.5,16.199,20.099,25.499,10.499l87.801-85.499H377c24.901,0,45-20.101,45-45v-240C422,36.077,401.901,15.977,377,15.977z" fill="#41fef5" data-original="#fedb41" class=""/><path xmlns="http://www.w3.org/2000/svg" style="" d="M422,60.977v240c0,24.899-20.099,45-45,45H212v-330h165C401.901,15.977,422,36.077,422,60.977z" fill="#33e2ff" data-original="#ffcc33" class=""/><g xmlns="http://www.w3.org/2000/svg"> <path style="" d="M287,135.977H75c-19.799,0-19.799-30,0-30h212C306.799,105.977,306.799,135.977,287,135.977z" fill="#e514f7" data-original="#994c0f" class=""/> <path style="" d="M347,195.977H75c-8.401,0-15-6.601-15-15c0-8.401,6.599-15,15-15h272 C366.799,165.977,366.799,195.977,347,195.977z" fill="#e514f7" data-original="#994c0f" class=""/> <path style="" d="M227,255.977H75c-19.799,0-19.799-30,0-30h152C246.799,225.977,246.799,255.977,227,255.977z" fill="#e514f7" data-original="#994c0f" class=""/> </g><g xmlns="http://www.w3.org/2000/svg"> <path style="" d="M227,255.977h-15v-30h15C246.799,225.977,246.799,255.977,227,255.977z" fill="#c30cb8" data-original="#713708" class=""/> <path style="" d="M287,135.977h-75v-30h75C306.799,105.977,306.799,135.977,287,135.977z" fill="#c30cb8" data-original="#713708" class=""/> <path style="" d="M347,195.977H212v-30h135C366.799,165.977,366.799,195.977,347,195.977z" fill="#c30cb8" data-original="#713708" class=""/> </g></symbol><symbol id="share" viewBox="0 0 512 512"><title>share</title><style lang="en" type="text/css" id="dark-mode-custom-style"/><style lang="en" type="text/css" id="dark-mode-native-style"/><g xmlns="http://www.w3.org/2000/svg"> <polygon style="" points="177.47,244.428 162.118,218.646 333.856,115.459 349.208,141.24 " fill="#00ff93" data-original="#0095ff" class=""/> <polygon style="" points="332.274,401.58 166.791,317.011 180.326,290.233 345.81,374.803 " fill="#00ff93" data-original="#0095ff" class=""/> </g><g xmlns="http://www.w3.org/2000/svg"> <path style="" d="M406,0c-49.501,0-90,40.499-90,90c0,49.499,40.499,90,90,90s90-40.501,90-90 C496,40.499,455.501,0,406,0z" fill="#00e904" data-original="#00abe9" class=""/> <path style="" d="M406,332c-49.501,0-90,40.499-90,90c0,49.499,40.499,90,90,90s90-40.501,90-90 C496,372.499,455.501,332,406,332z" fill="#00e904" data-original="#00abe9" class=""/> <path style="" d="M106,181c-49.501,0-90,40.499-90,90c0,49.499,40.499,90,90,90s90-40.501,90-90 C196,221.499,155.501,181,106,181z" fill="#00e904" data-original="#00abe9" class=""/> </g><g xmlns="http://www.w3.org/2000/svg"> <path style="" d="M496,422c0,49.499-40.499,90-90,90V332C455.501,332,496,372.499,496,422z" fill="#00ff93" data-original="#0095ff" class=""/> <path style="" d="M406,180V0c49.501,0,90,40.499,90,90C496,139.499,455.501,180,406,180z" fill="#00ff93" data-original="#0095ff" class=""/> <path style="" d="M196,271c0,49.499-40.499,90-90,90V181C155.501,181,196,221.499,196,271z" fill="#00ff93" data-original="#0095ff" class=""/> </g></symbol><symbol id="three-dots" viewBox="0 0 32.055 32.055"><title>three-dots</title><path d="M3.968,12.061C1.775,12.061,0,13.835,0,16.027c0,2.192,1.773,3.967,3.968,3.967c2.189,0,3.966-1.772,3.966-3.967 C7.934,13.835,6.157,12.061,3.968,12.061z M16.233,12.061c-2.188,0-3.968,1.773-3.968,3.965c0,2.192,1.778,3.967,3.968,3.967 s3.97-1.772,3.97-3.967C20.201,13.835,18.423,12.061,16.233,12.061z M28.09,12.061c-2.192,0-3.969,1.774-3.969,3.967 c0,2.19,1.774,3.965,3.969,3.965c2.188,0,3.965-1.772,3.965-3.965S30.278,12.061,28.09,12.061z"/></symbol><symbol id="heartbeat" viewBox="0 -45 511.998 511"><title>heartbeat</title><path d="m474.394531 122.03125c1.542969-65.394531-50.390625-120.8125-115.800781-121.523438-43.792969-.476562-82.101562 23.097657-102.597656 58.316407-20.5-35.21875-58.804688-58.7968752-102.597656-58.316407-65.410157.710938-117.34375 56.128907-115.800782 121.523438 3.453125 146.128906 178.226563 273.230469 212.574219 296.820312 3.511719 2.414063 8.136719 2.414063 11.648437 0 34.347657-23.589843 209.121094-150.691406 212.574219-296.820312zm0 0" fill="#f55"/><path d="m474.453125 117.660156c0 147.941406-177.898437 277.332032-212.628906 301.183594-3.515625 2.414062-8.144531 2.425781-11.664063.011719-8.554687-5.875-25.824218-18.171875-46.984375-35.582031 34.878907-23.96875 212.535157-153.285157 212.535157-301.136719 0-30.03125-11.285157-57.429688-29.863282-78.136719 50.90625 12.746094 88.605469 58.78125 88.605469 113.660156zm0 0" fill="#f72b2b"/><path d="m254.546875 332.152344c-6.351563 0-11.808594-4.519532-12.988281-10.769532l-32.273438-171.433593-34.339844 81.609375c-2 4.753906-6.578124 7.90625-11.730468 8.082031-5.160156.175781-9.9375-2.664063-12.253906-7.269531l-9.179688-18.246094h-128.566406c-7.296875 0-13.214844-5.917969-13.214844-13.214844 0-7.300781 5.917969-13.214844 13.214844-13.214844h136.710937c4.96875 0 9.515625 2.785157 11.769531 7.207032l40.269532-95.691406c2.261718-5.378907 7.785156-8.636719 13.578125-8.015626 5.800781.617188 10.507812 4.960938 11.589843 10.695313l26.609376 141.363281 11.011718-66.144531c1.058594-6.375 6.570313-11.046875 13.03125-11.046875h43.128906c4.46875 0 8.636719 2.257812 11.074219 6l20.25 31.082031 8.734375-10.625c2.511719-3.054687 6.257813-4.824219 10.210938-4.824219h127.601562c7.296875 0 13.210938 5.917969 13.210938 13.214844s-5.914063 13.214844-13.210938 13.214844h-121.355468l-16.210938 19.722656c-2.671875 3.25-6.738281 5.035156-10.9375 4.804688-4.207031-.230469-8.046875-2.453125-10.34375-5.980469l-26.179688-40.179687h-24.773437l-21.402344 128.613281c-1.050781 6.320312-6.488281 10.976562-12.894531 11.042969-.046875 0-.097656.003906-.140625.003906zm0 0" fill="#60daff"/></symbol><symbol id="plus" viewBox="0 0 52 52"><title>plus</title><path d="M26,0C11.664,0,0,11.663,0,26s11.664,26,26,26s26-11.663,26-26S40.336,0,26,0z M38.5,28H28v11c0,1.104-0.896,2-2,2 s-2-0.896-2-2V28H13.5c-1.104,0-2-0.896-2-2s0.896-2,2-2H24V14c0-1.104,0.896-2,2-2s2,0.896,2,2v10h10.5c1.104,0,2,0.896,2,2 S39.604,28,38.5,28z"/></symbol><symbol id="message" viewBox="0 0 512 512"><title>message</title><g> <g> <path d="M436.897,46.185H75.093C33.687,46.185,0,79.877,0,121.288v167.805c0,38.007,28.378,69.512,65.054,74.435v92.246 c0,4.06,2.447,7.721,6.197,9.275c1.242,0.515,2.546,0.765,3.84,0.765c2.612,0,5.18-1.021,7.101-2.94l98.677-98.677h256.027 c41.412,0,75.103-33.692,75.103-75.103V121.288C512,79.876,478.308,46.185,436.897,46.185z M491.922,289.094 c0,30.341-24.684,55.025-55.025,55.025H176.71c-2.662,0-5.216,1.058-7.099,2.94l-84.479,84.479v-77.38 c0-5.545-4.495-10.039-10.039-10.039c-30.336,0-55.015-24.684-55.015-55.025V121.288c0-30.341,24.679-55.025,55.015-55.025 h361.803c30.341,0,55.025,24.684,55.025,55.025V289.094z"/> </g> </g><g> <g> <path d="M384.492,165.511c-21.877,0-39.675,17.803-39.675,39.685c0,21.877,17.799,39.675,39.675,39.675 c21.882,0,39.685-17.799,39.685-39.675C424.177,183.314,406.374,165.511,384.492,165.511z M384.492,224.793 c-10.805,0-19.597-8.791-19.597-19.597c0-10.811,8.791-19.607,19.597-19.607c10.811,0,19.607,8.795,19.607,19.607 C404.099,216.001,395.303,224.793,384.492,224.793z"/> </g> </g><g> <g> <path d="M256,165.511c-21.882,0-39.685,17.803-39.685,39.685c0,21.877,17.803,39.675,39.685,39.675 c21.877,0,39.675-17.799,39.675-39.675C295.675,183.314,277.877,165.511,256,165.511z M256,224.793 c-10.811,0-19.607-8.791-19.607-19.597c0-10.811,8.795-19.607,19.607-19.607c10.805,0,19.597,8.795,19.597,19.607 C275.597,216.001,266.805,224.793,256,224.793z"/> </g> </g><g> <g> <path d="M127.498,165.511c-21.883,0-39.685,17.803-39.685,39.685c0,21.877,17.802,39.675,39.685,39.675 c21.882,0,39.685-17.799,39.685-39.675C167.183,183.314,149.38,165.511,127.498,165.511z M127.498,224.793 c-10.811,0-19.607-8.791-19.607-19.597c0-10.811,8.795-19.607,19.607-19.607s19.607,8.795,19.607,19.607 C147.105,216.001,138.309,224.793,127.498,224.793z"/> </g> </g><g> <g> <path d="M403.679,96.381h-93.36c-5.545,0-10.039,4.495-10.039,10.039s4.495,10.039,10.039,10.039h93.36 c5.545,0,10.039-4.495,10.039-10.039S409.224,96.381,403.679,96.381z"/> </g> </g><g> <g> <path d="M441.726,96.381c-12.919,0-12.941,20.078,0,20.078C454.645,116.459,454.666,96.381,441.726,96.381z"/> </g> </g></symbol><symbol id="customer-support" viewBox="0 0 569 569.54905"><title>customer-support</title><path d="m1.527344 52.246094 37.984375 66.46875c1.28125 2.246094 3.425781 3.871094 5.933593 4.5l35.4375 8.859375 121.542969 121.542969 13.429688-13.425782-123.445313-123.441406c-1.214844-1.21875-2.738281-2.082031-4.40625-2.5l-34.050781-8.542969-32.339844-56.625 27.726563-27.726562 56.648437 32.371093 8.546875 34.050782c.414063 1.671875 1.28125 3.199218 2.496094 4.414062l123.445312 123.445313 13.425782-13.429688-121.542969-121.542969-8.859375-35.417968c-.628906-2.511719-2.253906-4.660156-4.5-5.945313l-66.472656-37.980469c-3.707032-2.109374-8.371094-1.484374-11.394532 1.527344l-37.980468 37.984375c-3.0546878 3.003907-3.71875 7.675781-1.625 11.414063zm0 0"/><path d="m396.3125 187.144531-208.902344 208.90625-13.429687-13.429687 208.90625-208.902344zm0 0"/><path d="m150.847656 403.441406c-1.71875-2.859375-4.804687-4.605468-8.140625-4.605468h-56.972656c-3.332031 0-6.421875 1.746093-8.136719 4.605468l-28.488281 47.476563c-1.808594 3.007812-1.808594 6.769531 0 9.78125l28.488281 47.476562c1.714844 2.855469 4.804688 4.605469 8.136719 4.605469h56.972656c3.335938 0 6.421875-1.75 8.140625-4.605469l28.484375-47.476562c1.808594-3.011719 1.808594-6.773438 0-9.78125zm-13.511718 90.347656h-46.226563l-22.789063-37.980468 22.789063-37.984375h46.226563l22.789062 37.984375zm0 0"/><path d="m456.0625 227.914062c62.714844.210938 113.730469-50.460937 113.941406-113.175781.03125-9.546875-1.140625-19.054687-3.488281-28.308593-1.265625-5.089844-6.417969-8.1875-11.507813-6.921876-1.671874.417969-3.195312 1.28125-4.414062 2.496094l-59.109375 59.070313-46.898437-15.628907-15.640626-46.886718 59.109376-59.121094c3.707031-3.710938 3.703124-9.722656-.007813-13.429688-1.222656-1.222656-2.761719-2.089843-4.445313-2.503906-60.820312-15.402344-122.605468 21.414063-138.007812 82.230469-2.339844 9.226563-3.507812 18.710937-3.476562 28.230469.023437 7.476562.792968 14.929687 2.308593 22.25l-207.957031 207.953125c-7.320312-1.511719-14.773438-2.28125-22.246094-2.308594-62.933594 0-113.949218 51.015625-113.949218 113.949219 0 62.929687 51.015624 113.945312 113.949218 113.945312 62.929688 0 113.945313-51.015625 113.945313-113.945312-.023438-7.476563-.796875-14.929688-2.308594-22.25l49.785156-49.785156 21.773438 21.773437c3.710937 3.707031 9.71875 3.707031 13.429687 0l4.746094-4.75c4.164062-4.136719 10.894531-4.136719 15.058594 0 4.160156 4.148437 4.167968 10.882813.019531 15.042969-.003906.003906-.011719.011718-.019531.019531l-4.746094 4.746094c-3.707031 3.707031-3.707031 9.71875 0 13.425781l113.273438 113.273438c29.792968 30.066406 78.316406 30.285156 108.382812.492187 30.0625-29.792969 30.28125-78.320313.488281-108.382813-.160156-.164062-.324219-.328124-.488281-.492187l-113.273438-113.269531c-3.707031-3.707032-9.71875-3.707032-13.425781 0l-4.746093 4.746094c-4.167969 4.140624-10.894532 4.140624-15.0625 0-4.15625-4.148438-4.167969-10.882813-.019532-15.039063.007813-.007813.015625-.011719.019532-.019531l4.75-4.75c3.707031-3.707032 3.707031-9.71875 0-13.425782l-21.773438-21.773437 49.785156-49.785156c7.320313 1.511719 14.773438 2.285156 22.246094 2.308593zm37.308594 322.851563c-6.898438-.011719-13.738282-1.257813-20.195313-3.683594l74.160157-74.164062c11.191406 29.769531-3.867188 62.972656-33.636719 74.164062-6.496094 2.441407-13.382813 3.691407-20.328125 3.683594zm-107.574219-246.792969c-10.515625 12.542969-8.867187 31.238282 3.675781 41.75 11.023438 9.238282 27.089844 9.230469 38.101563-.027344l106.5625 106.65625c1.15625 1.160157 2.238281 2.382813 3.285156 3.625l-81.1875 81.1875c-1.246094-1.042968-2.46875-2.125-3.628906-3.285156l-106.644531-106.652344c10.515624-12.542968 8.867187-31.238281-3.675782-41.75-11.023437-9.242187-27.09375-9.230468-38.105468.023438l-15.191407-15.191406 81.613281-81.492188zm38.34375-95.503906-215.410156 215.367188c-2.363281 2.359374-3.3125 5.785156-2.507813 9.023437 13.027344 51.160156-17.886718 103.195313-69.050781 116.21875-51.160156 13.027344-103.195313-17.886719-116.222656-69.050781-13.023438-51.160156 17.890625-103.195313 69.054687-116.222656 15.476563-3.9375 31.691406-3.9375 47.167969 0 3.238281.792968 6.65625-.15625 9.023437-2.503907l215.359376-215.371093c2.359374-2.359376 3.308593-5.785157 2.496093-9.019532-12.9375-50.5625 17.5625-102.039062 68.125-114.980468 9.554688-2.441407 19.4375-3.378907 29.28125-2.765626l-50.089843 50.109376c-2.542969 2.539062-3.433594 6.300781-2.296876 9.710937l18.988282 56.976563c.949218 2.832031 3.175781 5.058593 6.011718 6l56.976563 18.992187c3.40625 1.136719 7.167969.25 9.710937-2.289063l50.089844-50.089843c.113282 1.8125.171875 3.605469.171875 5.390625.265625 52.175781-41.8125 94.6875-93.988281 94.957031-8.066406.039063-16.105469-.953125-23.917969-2.953125-3.238281-.808594-6.664062.136719-9.023437 2.496094h.050781zm0 0"/><path d="m491.273438 477.578125-13.429688 13.429687-94.953125-94.953124 13.425781-13.429688zm0 0"/></symbol><symbol id="user" viewBox="-28 -19 618 618.66574"><title>user</title><path d="m211.265625 264.132812c72.9375 0 132.066406-59.125 132.066406-132.066406 0-72.9375-59.128906-132.066406-132.066406-132.066406s-132.066406 59.128906-132.066406 132.066406c.070312 72.914063 59.15625 131.996094 132.066406 132.066406zm0-239.144531c59.140625 0 107.078125 47.945313 107.078125 107.078125 0 59.140625-47.9375 107.078125-107.078125 107.078125-59.136719 0-107.074219-47.9375-107.074219-107.078125.066406-59.109375 47.964844-107.007812 107.074219-107.078125zm0 0"/><path d="m554.492188 337.976562-107.703126-57.347656c-3.710937-2.023437-8.203124-1.976562-11.871093.121094l-98.582031 53.976562c-36.109376-26.863281-79.34375-40.855468-125.316407-40.855468-57.226562.125-110.328125 22.367187-149.6875 62.847656-39.859375 40.855469-61.726562 96.707031-61.597656 157.304688.019531 6.894531 5.601563 12.476562 12.492187 12.496093l347.597657-.625c16.339843 20.289063 37.347656 36.320313 61.222656 46.730469l14.496094 6.371094c1.574219.703125 3.28125 1.042968 5 1 1.710937-.03125 3.40625-.367188 4.996093-1l16.367188-7.121094c60.136719-25.230469 99.25-84.09375 99.207031-149.3125v-73.46875c.003907-4.640625-2.539062-8.910156-6.621093-11.117188zm-529.394532 163.429688c2.621094-49.105469 21.738282-93.957031 54.226563-127.320312 34.605469-35.609376 81.460937-55.226563 131.816406-55.226563h.375c41.359375 0 80.09375 12.996094 112.203125 37.609375v67.59375c.019531 26.835938 6.714844 53.242188 19.488281 76.839844zm511.027344-78.84375c.023438 55.21875-33.140625 105.039062-84.089844 126.324219h-.125l-11.367187 4.871093-9.5-4.125c-49.96875-21.832031-82.28125-71.160156-82.335938-125.691406v-67.597656l92.332031-50.601562 95.085938 50.726562zm0 0"/><path d="m406.804688 415.941406c-4.484376-5.242187-12.371094-5.855468-17.617188-1.371094-5.242188 4.484376-5.855469 12.371094-1.371094 17.613282l28.359375 33.109375c2.382813 2.769531 5.847657 4.363281 9.496094 4.375 2.863281.023437 5.644531-.945313 7.871094-2.75l65.972656-53.597657c5.347656-4.382812 6.128906-12.269531 1.746094-17.621093-4.378907-5.347657-12.265625-6.128907-17.613281-1.746094l-56.476563 45.980469zm0 0"/></symbol><symbol id="dollar" viewBox="0 0 24 24"><title>dollar</title><path d="m8.5 21h-6c-1.378 0-2.5-1.122-2.5-2.5v-13c0-1.378 1.122-2.5 2.5-2.5h19c1.378 0 2.5 1.122 2.5 2.5v5c0 .276-.224.5-.5.5s-.5-.224-.5-.5v-5c0-.827-.673-1.5-1.5-1.5h-19c-.827 0-1.5.673-1.5 1.5v13c0 .827.673 1.5 1.5 1.5h6c.276 0 .5.224.5.5s-.224.5-.5.5z"/><path d="m7.5 16h-7c-.276 0-.5-.224-.5-.5v-7c0-.276.224-.5.5-.5h7c1.378 0 2.5 1.122 2.5 2.5v.67c0 .276-.224.5-.5.5s-.5-.224-.5-.5v-.67c0-.827-.673-1.5-1.5-1.5h-6.5v6h6.5c.272-.066.54.102.605.37s-.098.541-.366.606c-.099.024-.183.024-.239.024z"/><path d="m5 14c-1.103 0-2-.897-2-2s.897-2 2-2 2 .897 2 2-.897 2-2 2zm0-3c-.551 0-1 .449-1 1s.449 1 1 1 1-.449 1-1-.449-1-1-1z"/><path d="m17.5 21.5c-.276 0-.5-.224-.5-.5v-.75c0-.276.224-.5.5-.5s.5.224.5.5v.75c0 .276-.224.5-.5.5z"/><path d="m17.75 20.5h-1.75c-.276 0-.5-.224-.5-.5s.224-.5.5-.5h1.75c.414 0 .75-.336.75-.75s-.336-.75-.75-.75h-.5c-.965 0-1.75-.785-1.75-1.75s.785-1.75 1.75-1.75h1.75c.276 0 .5.224.5.5s-.224.5-.5.5h-1.75c-.414 0-.75.336-.75.75s.336.75.75.75h.5c.965 0 1.75.785 1.75 1.75s-.785 1.75-1.75 1.75z"/><path d="m17.5 15.25c-.276 0-.5-.224-.5-.5v-.75c0-.276.224-.5.5-.5s.5.224.5.5v.75c0 .276-.224.5-.5.5z"/><path d="m17.5 24c-3.584 0-6.5-2.916-6.5-6.5s2.916-6.5 6.5-6.5 6.5 2.916 6.5 6.5-2.916 6.5-6.5 6.5zm0-12c-3.033 0-5.5 2.467-5.5 5.5s2.467 5.5 5.5 5.5 5.5-2.467 5.5-5.5-2.467-5.5-5.5-5.5z"/></symbol><symbol id="shopping-store" viewBox="0 0 74 74"><title>shopping-store</title><path d="M66.5,68.5H7.5a1,1,0,0,1-1-1V32.83a1,1,0,0,1,2,0V66.5h57V32.83a1,1,0,0,1,2,0V67.5A1,1,0,0,1,66.5,68.5Z"/><path d="M71,24.5H3a1,1,0,0,1-.9-1.426l8-17A1,1,0,0,1,11,5.5H63a1,1,0,0,1,.905.574l8,17A1,1,0,0,1,71,24.5Zm-66.424-2H69.424l-7.059-15H11.635Z"/><path d="M65.333,33.954a6.674,6.674,0,0,1-6.666-6.667V23.5a1,1,0,0,1,1-1H71a1,1,0,0,1,1,1v3.787A6.675,6.675,0,0,1,65.333,33.954ZM60.667,24.5v2.787a4.667,4.667,0,1,0,9.333,0V24.5Z"/><path d="M54,33.954a6.675,6.675,0,0,1-6.667-6.667V23.5a1,1,0,0,1,1-1H59.667a1,1,0,0,1,1,1v3.787A6.675,6.675,0,0,1,54,33.954ZM49.333,24.5v2.787a4.667,4.667,0,1,0,9.334,0V24.5Z"/><path d="M42.667,33.954A6.675,6.675,0,0,1,36,27.287V23.5a1,1,0,0,1,1-1H48.333a1,1,0,0,1,1,1v3.787A6.674,6.674,0,0,1,42.667,33.954ZM38,24.5v2.787a4.667,4.667,0,1,0,9.333,0V24.5Z"/><path d="M31.333,33.954a6.674,6.674,0,0,1-6.666-6.667V23.5a1,1,0,0,1,1-1H37a1,1,0,0,1,1,1v3.787A6.675,6.675,0,0,1,31.333,33.954ZM26.667,24.5v2.787a4.667,4.667,0,1,0,9.333,0V24.5Z"/><path d="M20,33.954a6.675,6.675,0,0,1-6.667-6.667V23.5a1,1,0,0,1,1-1H25.667a1,1,0,0,1,1,1v3.787A6.675,6.675,0,0,1,20,33.954ZM15.333,24.5v2.787a4.667,4.667,0,0,0,9.334,0V24.5Z"/><path d="M8.667,33.954A6.675,6.675,0,0,1,2,27.287V23.5a1,1,0,0,1,1-1H14.333a1,1,0,0,1,1,1v3.787A6.674,6.674,0,0,1,8.667,33.954ZM4,24.5v2.787a4.667,4.667,0,1,0,9.333,0V24.5Z"/><path d="M29,68.5H15.667a1,1,0,0,1-1-1v-18a1,1,0,0,1,1-1H29a1,1,0,0,1,1,1v18A1,1,0,0,1,29,68.5Zm-12.333-2H28v-16H16.667Z"/><path d="M57.458,56.469H37.792a1,1,0,0,1-1-1V42.7a1.548,1.548,0,0,1,1.546-1.547H56.912A1.548,1.548,0,0,1,58.458,42.7V55.469A1,1,0,0,1,57.458,56.469Zm-18.666-2H56.458V43.156H38.792Zm18.12-11.313h0Z"/><path d="M59.458,56.469H35.792a1,1,0,0,1,0-2H59.458a1,1,0,0,1,0,2Z"/><path d="M59.669,24.5a1,1,0,0,1-.974-.779l-3.86-17a1,1,0,0,1,1.95-.442l3.86,17a1,1,0,0,1-.976,1.221Z"/><path d="M48.119,24.5a1,1,0,0,1-.983-.825l-3.031-17a1,1,0,0,1,1.969-.35l3.03,17a1,1,0,0,1-.809,1.159A.96.96,0,0,1,48.119,24.5Z"/><path d="M14.331,24.5a1,1,0,0,1-.976-1.221l3.86-17a1,1,0,1,1,1.95.442l-3.86,17A1,1,0,0,1,14.331,24.5Z"/><path d="M25.881,24.5a.96.96,0,0,1-.176-.016,1,1,0,0,1-.809-1.159l3.03-17a1,1,0,0,1,1.969.35l-3.031,17A1,1,0,0,1,25.881,24.5Z"/><path d="M37,24.5a1,1,0,0,1-1-1V6.5a1,1,0,0,1,2,0v17A1,1,0,0,1,37,24.5Z"/></symbol></svg>